<svg width="23" height="23" viewBox="0 0 23 23" fill="none" xmlns="http://www.w3.org/2000/svg">
<mask id="mask0_615_4363" style="mask-type:alpha" maskUnits="userSpaceOnUse" x="0" y="0" width="23" height="23">
<rect x="0.624512" y="0.790039" width="22" height="22" fill="#D9D9D9"/>
</mask>
<g mask="url(#mask0_615_4363)">
<path d="M20.012 4.59527C19.9788 4.79728 19.9471 4.99929 19.9119 5.20019C19.6938 6.44799 19.475 7.69579 19.2554 8.94359C19.0125 10.3112 18.7671 11.6785 18.5194 13.0455C18.3184 14.1533 18.1143 15.2606 17.9071 16.3674C17.8745 16.5428 17.6974 16.6522 17.5278 16.5878C17.1075 16.4298 16.689 16.264 16.2739 16.0951C15.6424 15.8389 15.0134 15.5768 14.3826 15.3186C14.2535 15.2657 14.2508 15.2674 14.1642 15.3796C13.6281 16.0734 13.0922 16.7675 12.5566 17.4619C12.4494 17.6008 12.3418 17.7394 12.2289 17.8736C12.0738 18.0582 11.786 18.0206 11.7027 17.7976C11.5105 17.2834 11.3244 16.7677 11.1445 16.2504C10.8707 15.4608 10.6039 14.6676 10.3372 13.8752C10.3132 13.8035 10.2751 13.7677 10.2032 13.7439C8.98209 13.3398 7.7616 12.9345 6.54174 12.5278C6.43606 12.4925 6.33298 12.4488 6.22674 12.4152C6.09627 12.3739 6.05899 12.2653 6.03756 12.1539C6.01892 12.0564 6.06496 11.9715 6.14939 11.9186C6.48489 11.71 6.81909 11.4962 7.16223 11.2994C9.28137 10.0818 11.4017 8.86671 13.5234 7.65405C15.2961 6.64107 17.0703 5.63053 18.8461 4.62245C19.0478 4.50767 19.251 4.39546 19.4534 4.28197L19.4616 4.27756C19.7078 4.14552 19.8593 4.18225 20.0111 4.41089L20.012 4.59527ZM16.8385 7.87185L16.8031 7.83971C16.7845 7.87074 16.7707 7.90711 16.7455 7.93153C15.5757 9.08555 14.4054 10.239 13.2345 11.3919C12.5054 12.1104 11.7771 12.8294 11.0494 13.549C11.0151 13.5828 10.9789 13.6085 11.0011 13.6726C11.2869 14.4974 11.571 15.3228 11.8533 16.1487C11.8624 16.1755 11.8764 16.2005 11.8982 16.2484C11.9129 16.1878 11.9226 16.1529 11.9301 16.1173C12.0452 15.5664 12.1602 15.0154 12.2751 14.4645C12.3152 14.274 12.3528 14.0884 12.4749 13.9198C13.8804 11.9798 15.2824 10.0374 16.6808 8.09259C16.7336 8.01888 16.7862 7.9453 16.8385 7.87185ZM13.581 14.9847C13.5541 14.9667 13.5261 14.9503 13.4973 14.9355C13.3519 14.8738 13.2065 14.8119 13.0596 14.7535C12.9543 14.7115 12.9383 14.719 12.9159 14.8294C12.8378 15.2165 12.7625 15.604 12.6868 15.9915C12.6775 16.0396 12.6727 16.0884 12.666 16.1369L12.6921 16.1474L13.581 14.9847Z" fill="#1D82BF"/>
<path d="M3.23706 16.2031C3.28832 16.0943 3.34163 15.9895 3.47005 15.9471C3.57629 15.9118 3.68105 15.9208 3.75989 15.9919C3.96977 16.1807 4.17703 16.3733 4.37181 16.5771C4.46855 16.6785 4.44636 16.871 4.35428 16.9659C4.22549 17.0998 4.05737 17.1428 3.93006 17.048C3.66912 16.8533 3.41842 16.644 3.23706 16.3685V16.2031Z" fill="#1D82BF"/>
<path d="M6.32842 18.7041C6.27772 18.6858 6.17427 18.6665 6.08816 18.6173C5.80858 18.4579 5.53645 18.2886 5.26246 18.1214C5.22323 18.0966 5.18702 18.0675 5.15453 18.0346C5.03152 17.913 5.01158 17.7382 5.1031 17.6078C5.20337 17.4649 5.37858 17.4115 5.53645 17.5015C5.88016 17.6968 6.2164 17.9055 6.55507 18.1084C6.57809 18.124 6.59917 18.1422 6.61789 18.1626C6.72395 18.2689 6.70643 18.3894 6.65517 18.5115C6.60391 18.6336 6.51761 18.7051 6.32842 18.7041Z" fill="#1D82BF"/>
<path d="M8.73347 19.379C8.48482 19.3512 8.20132 19.323 7.91894 19.2871C7.76386 19.2675 7.64793 19.1904 7.59369 19.0365C7.51392 18.8104 7.72304 18.5625 7.96162 18.5911C8.27849 18.629 8.59536 18.655 8.91352 18.6857C8.97522 18.6918 9.03728 18.6934 9.09898 18.7002C9.25909 18.7175 9.35657 18.8223 9.36738 18.9862C9.37949 19.1698 9.2917 19.3107 9.13048 19.3408C9.01249 19.3624 8.89078 19.3645 8.73347 19.379Z" fill="#1D82BF"/>
<path d="M10.3211 18.6444C10.3189 18.5441 10.356 18.4488 10.4703 18.3898C10.6734 18.285 10.8715 18.1695 11.0781 18.0725C11.1594 18.0358 11.2486 18.0192 11.3379 18.024C11.4816 18.0319 11.5785 18.1208 11.6147 18.2583C11.6488 18.3891 11.622 18.507 11.5042 18.5929C11.2786 18.7615 11.0268 18.8929 10.7586 18.9821C10.5308 19.0561 10.3228 18.8994 10.3211 18.6444Z" fill="#1D82BF"/>
</g>
</svg>
