<svg width="23" height="22" viewBox="0 0 23 22" fill="none" xmlns="http://www.w3.org/2000/svg">
<path d="M11.2041 21.9982C10.9745 21.9879 10.7452 21.9762 10.5158 21.9672C8.85658 21.9043 7.21642 21.7047 5.6074 21.2978C4.60572 21.0445 3.63266 20.7155 2.72553 20.2241C2.12365 19.8982 1.56814 19.5142 1.14538 18.9762C0.668057 18.3673 0.488492 17.6961 0.734425 16.9516C0.907624 16.4259 1.25993 16.0166 1.68315 15.6616C2.40595 15.0554 3.25148 14.6597 4.13793 14.3382C5.15303 13.9698 6.20109 13.7192 7.26938 13.546C7.30483 13.5403 7.36416 13.5577 7.38302 13.5836C7.53781 13.8092 7.68601 14.0392 7.83557 14.2682C7.84205 14.2833 7.84655 14.2992 7.84898 14.3153C7.5685 14.3637 7.29347 14.4067 7.02026 14.4593C5.63558 14.7257 4.28455 15.0906 3.04852 15.7754C2.59393 16.0274 2.1723 16.324 1.85181 16.7364C1.38699 17.3348 1.40608 17.9406 1.90476 18.5206C2.25207 18.9245 2.68756 19.2182 3.15488 19.4726C3.90791 19.8824 4.71458 20.1636 5.54148 20.3922C6.59476 20.6834 7.6701 20.8671 8.75748 20.9849C9.56938 21.0729 10.3842 21.129 11.2018 21.125C11.8516 21.1217 12.5024 21.125 13.1509 21.0925C14.3558 21.0331 15.5537 20.8779 16.7323 20.6281C17.6393 20.4343 18.5264 20.1799 19.3767 19.8159C20.0436 19.5298 20.6805 19.194 21.1937 18.6775C21.463 18.4067 21.6756 18.1036 21.721 17.7159C21.7615 17.3722 21.6378 17.0757 21.441 16.8004C21.1503 16.3942 20.7525 16.1029 20.3243 15.85C19.4947 15.3599 18.595 15.0259 17.6586 14.7907C17.0192 14.63 16.3691 14.5101 15.7238 14.3726C15.6913 14.3655 15.6588 14.3574 15.6102 14.3461C15.7122 14.1901 15.8082 14.0431 15.9041 13.8961C15.9584 13.8125 16.0159 13.7306 16.0657 13.6446C16.0982 13.5885 16.1355 13.5691 16.2021 13.5812C17.2633 13.7729 18.3059 14.0304 19.3112 14.4152C20.127 14.7277 20.9064 15.1071 21.5719 15.6731C22.0224 16.0562 22.3884 16.4985 22.5443 17.0738C22.5813 17.2111 22.5981 17.3532 22.6245 17.4932V17.7132C22.6175 17.7301 22.6122 17.7476 22.6088 17.7654C22.5584 18.3221 22.2958 18.7827 21.9169 19.1892C21.4594 19.6799 20.9 20.0393 20.2993 20.3407C19.3031 20.8409 18.2432 21.1708 17.1538 21.4157C15.6952 21.7438 14.2153 21.9146 12.7199 21.9694C12.4944 21.9778 12.269 21.9899 12.0435 22.0002L11.2041 21.9982Z" fill="#1D82BF"/>
<path d="M18.2156 6.08769C18.2384 6.71926 18.0956 7.32354 17.8924 7.91747C17.5328 8.96781 17.0239 9.95214 16.4691 10.9156C15.464 12.6606 14.3168 14.317 13.1051 15.9329C12.6899 16.487 12.2571 17.0285 11.8311 17.5752C11.7489 17.6806 11.7452 17.6799 11.66 17.5752C10.7649 16.4676 9.9171 15.3266 9.10452 14.161C8.14806 12.7885 7.2407 11.3871 6.47108 9.90636C6.08468 9.163 5.74692 8.40094 5.49803 7.60213C5.14572 6.47169 5.23982 5.35864 5.61872 4.25725C5.95489 3.27953 6.51994 2.43825 7.29002 1.72966C7.95357 1.11447 8.74769 0.646768 9.61706 0.359145C10.9902 -0.0965949 12.3773 -0.128943 13.7488 0.321516C15.874 1.01932 17.2744 2.42813 17.9538 4.50042C18.1247 5.01513 18.197 5.54855 18.2156 6.08769ZM11.7605 3.57001C10.4056 3.548 9.26226 4.63861 9.2418 5.97304C9.22203 7.27601 10.3444 8.38708 11.7048 8.41172C13.0504 8.43593 14.22 7.36579 14.2452 6.08725C14.2732 4.6879 13.194 3.59465 11.7609 3.57089L11.7605 3.57001Z" fill="#1D82BF"/>
<path d="M13.7576 16.729C13.8911 16.544 14.0167 16.3671 14.1452 16.1923C14.3161 15.9597 14.3159 15.9639 14.6063 16.0409C15.0453 16.1576 15.4748 16.2958 15.8624 16.5336C16.079 16.6657 16.2697 16.8274 16.3974 17.0464C16.5986 17.391 16.5518 17.7893 16.2765 18.1097C16.0604 18.3608 15.7781 18.5216 15.476 18.6537C14.7786 18.9585 14.0386 19.1068 13.2837 19.1735C12.6898 19.226 12.0916 19.2615 11.4958 19.2566C10.503 19.2496 9.51835 19.1466 8.5653 18.8555C8.17027 18.7351 7.79454 18.5773 7.45928 18.3359C6.84377 17.8932 6.81172 17.1934 7.3911 16.7075C7.69953 16.4487 8.06685 16.2931 8.44871 16.1697C8.65327 16.1036 8.86124 16.0499 9.06967 15.9987C9.10604 15.9897 9.17104 16.0066 9.1915 16.0337C9.36265 16.2608 9.52654 16.4929 9.70314 16.7379C9.56518 16.7684 9.4388 16.7964 9.31243 16.8259C8.92852 16.9121 8.55122 17.0178 8.20482 17.2048C8.11292 17.2555 8.02668 17.3152 7.94751 17.3831C7.84296 17.4711 7.8375 17.5268 7.94933 17.6031C8.11208 17.7132 8.28187 17.8216 8.46348 17.8976C9.04785 18.1423 9.66813 18.2497 10.2973 18.3247C10.9087 18.3993 11.5253 18.4254 12.1411 18.4028C13.0571 18.3656 13.9672 18.2789 14.8364 17.9722C15.0543 17.8954 15.2555 17.7741 15.4635 17.6716C15.4864 17.6586 15.5074 17.6428 15.5262 17.6247C15.6555 17.5133 15.6646 17.4625 15.5262 17.3674C15.3671 17.2574 15.201 17.1434 15.0196 17.0838C14.627 16.9546 14.2227 16.8589 13.8233 16.7495C13.8067 16.7442 13.7901 16.7385 13.7576 16.729Z" fill="#1D82BF"/>
</svg>
