<svg width="23" height="23" viewBox="0 0 23 23" fill="none" xmlns="http://www.w3.org/2000/svg">
<mask id="mask0_615_4351" style="mask-type:alpha" maskUnits="userSpaceOnUse" x="0" y="0" width="23" height="23">
<rect x="0.624512" y="0.544922" width="22" height="22" fill="#D9D9D9"/>
</mask>
<g mask="url(#mask0_615_4351)">
<path d="M4.28149 7.58342C4.4167 6.84097 4.80849 6.26026 5.38404 5.79902C5.79633 5.46857 5.91082 5.4706 6.1948 5.91444C6.85923 6.95346 7.50094 8.0067 8.15489 9.05724C8.11035 9.118 8.09386 9.16136 8.06201 9.1844C7.45305 9.62327 7.42098 10.2661 7.50807 10.9182C7.70853 12.42 8.38855 13.6684 9.54567 14.6331C10.058 15.0602 10.634 15.3412 11.3256 15.1633C11.5911 15.0955 11.7162 15.2021 11.8443 15.4289C12.4065 16.4259 12.9894 17.4107 13.5632 18.4007C13.6189 18.4969 13.6634 18.5999 13.7218 18.7169C13.3269 19.0736 12.8357 19.1662 12.3602 19.2947H11.7588C10.9897 19.1528 10.3584 18.7388 9.78912 18.2279C7.41028 16.0936 5.8117 13.4337 4.76662 10.4206C4.53363 9.74863 4.44008 9.02674 4.28216 8.32789L4.28149 7.58342Z" fill="#1D82BF"/>
<path d="M18.9676 11.9166C18.9021 12.278 18.8384 12.6394 18.7698 13.0008C18.7474 13.1223 18.7177 13.2422 18.6807 13.36C18.5364 13.8117 18.031 13.9698 17.682 13.6466C17.6092 13.5788 17.6176 13.3771 17.6455 13.2497C17.8923 12.1246 17.9016 10.9892 17.7292 9.86163C17.5308 8.56264 16.8581 7.49675 15.989 6.54944C15.4216 5.92884 14.742 5.42458 13.987 5.0641C13.2491 4.71016 13.201 4.54459 13.5602 3.79492H13.8275C13.8582 3.82159 13.8912 3.84533 13.9262 3.86585C16.4703 5.05371 18.2039 6.93116 18.7946 9.77445C18.8674 10.1245 18.9106 10.4808 18.9676 10.834V11.9166Z" fill="#1D82BF"/>
<path d="M13.4131 13.6367C13.5813 13.7567 13.7436 13.8154 13.814 13.9315C14.5027 15.0708 15.1827 16.216 15.8432 17.3724C15.9 17.4723 15.8516 17.7363 15.7641 17.8016C15.3632 18.0975 14.9315 18.3509 14.509 18.6163C14.2896 18.7543 14.1771 18.5854 14.0844 18.4356C13.7298 17.8651 13.3717 17.2954 13.042 16.7104C12.6899 16.0865 12.3707 15.4437 12.0297 14.8131C11.9065 14.5856 11.9702 14.4248 12.1751 14.3103C12.5785 14.0833 12.987 13.8667 13.4131 13.6367Z" fill="#1D82BF"/>
<path d="M10.3016 8.01073C10.2321 8.12005 10.1535 8.2454 10.0724 8.36896C10.0611 8.38612 10.0359 8.39335 10.0178 8.40646C8.95204 9.17578 8.75247 9.16244 8.04751 8.06132C7.49913 7.20458 7.02537 6.29951 6.51597 5.41635C6.36852 5.16066 6.39435 4.9436 6.6456 4.77984C6.99819 4.54968 7.3519 4.32109 7.71363 4.10628C7.89182 3.9999 8.05307 4.04914 8.16533 4.23661C8.83221 5.35062 9.50176 6.46259 10.1646 7.57953C10.2306 7.69088 10.2466 7.83206 10.3016 8.01073Z" fill="#1D82BF"/>
<path d="M15.5468 11.5288C15.7279 9.72792 14.8688 8.3614 13.3863 7.32216C13.2052 7.19544 12.9934 7.11457 12.8009 7.00344C12.5087 6.83494 12.476 6.59213 12.6588 6.1903C12.7969 5.88628 13.011 5.93327 13.2411 6.03807C14.9303 6.80739 15.9774 8.12829 16.4912 9.91472C16.7565 10.8376 16.7282 11.7565 16.5024 12.678C16.4538 12.8768 16.4057 13.0869 16.13 13.0645C15.778 13.0358 15.582 12.8709 15.5593 12.5748C15.5475 12.4167 15.5497 12.2586 15.5482 12.1021C15.5466 11.9455 15.5468 11.7847 15.5468 11.5288Z" fill="#1D82BF"/>
<path d="M14.3673 11.2402C14.3432 11.4408 14.3205 11.6416 14.2947 11.8422C14.2677 12.0515 14.221 12.2677 13.9637 12.2736C13.692 12.2797 13.4169 12.2429 13.3574 11.8876C13.2946 11.5117 13.2391 11.1345 13.1736 10.7582C13.0509 10.0521 12.6979 9.51273 12.0646 9.16782C11.7504 8.99661 11.7515 8.30341 12.0646 8.12339C12.125 8.08883 12.2359 8.11233 12.3112 8.14169C13.4911 8.60021 14.3764 9.94663 14.3673 11.2402Z" fill="#1D82BF"/>
</g>
</svg>
