<svg width="13" height="12" viewBox="0 0 13 12" fill="none" xmlns="http://www.w3.org/2000/svg">
<path d="M4.83336 8.38891C6.25447 6.77699 7.63419 5.22472 9.00638 3.67007C9.99476 2.55091 10.9555 1.40312 11.9828 0.32214C12.1873 0.106183 12.6413 0.101416 12.9787 0C12.9649 0.311407 13.0665 0.689624 12.9185 0.925864C10.736 4.38833 8.53059 7.83729 6.30214 11.2727C5.71262 12.1795 4.74807 12.2415 3.97167 11.4409C2.76504 10.1977 1.60483 8.91269 0.444613 7.62888C-0.146156 6.97504 -0.182533 6.27229 0.543699 5.70317C1.20847 5.18058 1.90711 5.29989 2.48283 5.89168C3.24418 6.68034 3.99675 7.49048 4.83336 8.38891Z" fill="black"/>
</svg>
