<svg width="20" height="21" viewBox="0 0 20 21" fill="none" xmlns="http://www.w3.org/2000/svg">
<path d="M9.61535 20.3684C9.40666 20.359 9.19816 20.3484 8.98967 20.3402C7.48126 20.283 5.99021 20.1015 4.52746 19.7316C3.61683 19.5014 2.73224 19.2023 1.90758 18.7556C1.36041 18.4593 0.855407 18.1102 0.471072 17.6211C0.0371449 17.0675 -0.126096 16.4574 0.0974797 15.7806C0.254933 15.3027 0.575207 14.9306 0.959955 14.6079C1.61704 14.0567 2.38571 13.6971 3.19158 13.4048C4.1144 13.0699 5.06717 12.842 6.03834 12.6846C6.07058 12.6794 6.12451 12.6952 6.14166 12.7188C6.28238 12.9238 6.4171 13.1329 6.55307 13.3412C6.55896 13.3549 6.56305 13.3693 6.56526 13.384C6.31027 13.428 6.06025 13.467 5.81188 13.5148C4.55308 13.7571 3.32486 14.0888 2.2012 14.7113C1.78794 14.9404 1.40464 15.2101 1.11328 15.585C0.690723 16.1289 0.708071 16.6796 1.16142 17.207C1.47715 17.5741 1.87306 17.8411 2.2979 18.0724C2.98247 18.4449 3.7158 18.7006 4.46753 18.9084C5.42506 19.1731 6.40264 19.3401 7.39117 19.4472C8.12926 19.5272 8.87003 19.5782 9.61329 19.5746C10.204 19.5716 10.7956 19.5746 11.3852 19.545C12.4806 19.4911 13.5696 19.3499 14.641 19.1229C15.4655 18.9466 16.272 18.7154 17.045 18.3845C17.6513 18.1244 18.2302 17.8191 18.6968 17.3496C18.9417 17.1034 19.1349 16.8279 19.1762 16.4754C19.213 16.1629 19.1006 15.8934 18.9216 15.6432C18.6573 15.2739 18.2957 15.009 17.9065 14.7791C17.1522 14.3336 16.3344 14.0299 15.4831 13.8161C14.9018 13.67 14.3108 13.561 13.7242 13.436C13.6947 13.4296 13.6651 13.4222 13.6209 13.412C13.7137 13.2701 13.8009 13.1365 13.8881 13.0029C13.9375 12.9268 13.9897 12.8524 14.035 12.7742C14.0645 12.7232 14.0984 12.7056 14.159 12.7166C15.1237 12.8908 16.0716 13.1249 16.9855 13.4748C17.7271 13.7589 18.4356 14.1038 19.0406 14.6183C19.4502 14.9666 19.7829 15.3687 19.9246 15.8916C19.9583 16.0165 19.9736 16.1457 19.9976 16.2729V16.473C19.9912 16.4883 19.9864 16.5042 19.9833 16.5204C19.9374 17.0265 19.6988 17.4452 19.3543 17.8147C18.9384 18.2609 18.4298 18.5875 17.8837 18.8616C16.9781 19.3163 16.0145 19.6162 15.0241 19.8389C13.6982 20.1371 12.3528 20.2924 10.9934 20.3422C10.7884 20.3498 10.5834 20.3608 10.3784 20.3702L9.61535 20.3684Z" fill="#1D82BF"/>
<path d="M15.9897 5.90438C16.0104 6.47854 15.8806 7.02788 15.6959 7.56782C15.369 8.52267 14.9063 9.41751 14.4019 10.2933C13.4882 11.8798 12.4454 13.3856 11.3438 14.8545C10.9663 15.3583 10.5729 15.8506 10.1856 16.3475C10.1108 16.4434 10.1075 16.4428 10.03 16.3475C9.21632 15.3407 8.44558 14.3034 7.70688 13.2437C6.83737 11.996 6.0125 10.7221 5.31284 9.3759C4.96157 8.70012 4.65451 8.00734 4.42825 7.28114C4.10797 6.25347 4.19352 5.24161 4.53797 4.24034C4.84358 3.35151 5.35726 2.58671 6.05733 1.94254C6.66056 1.38327 7.38249 0.958088 8.17283 0.696613C9.42109 0.282304 10.6822 0.252897 11.929 0.662405C13.861 1.29677 15.1341 2.57751 15.7517 4.46141C15.9071 4.92933 15.9728 5.41425 15.9897 5.90438ZM10.1214 3.61558C8.88964 3.59557 7.85028 4.58704 7.83168 5.80016C7.81371 6.98467 8.83405 7.99473 10.0707 8.01714C11.294 8.03914 12.3573 7.06629 12.3803 5.90398C12.4057 4.63185 11.4246 3.63798 10.1218 3.61638L10.1214 3.61558Z" fill="#1D82BF"/>
<path d="M11.9373 15.5785C12.0586 15.4102 12.1728 15.2494 12.2896 15.0905C12.445 14.8791 12.4448 14.8829 12.7088 14.9529C13.1079 15.0589 13.4984 15.1846 13.8507 15.4008C14.0476 15.5208 14.221 15.6679 14.3371 15.8669C14.52 16.1802 14.4774 16.5423 14.2272 16.8336C14.0307 17.0618 13.774 17.2081 13.4994 17.3281C12.8655 17.6052 12.1927 17.74 11.5065 17.8006C10.9665 17.8485 10.4227 17.8807 9.8811 17.8763C8.97853 17.8699 8.0834 17.7762 7.21699 17.5116C6.85787 17.4021 6.5163 17.2587 6.21152 17.0392C5.65196 16.6367 5.62283 16.0006 6.14953 15.5588C6.42993 15.3236 6.76385 15.1822 7.11099 15.0699C7.29696 15.0099 7.48603 14.9611 7.67551 14.9145C7.70857 14.9063 7.76766 14.9217 7.78626 14.9463C7.94185 15.1527 8.09084 15.3638 8.25139 15.5865C8.12597 15.6143 8.01108 15.6397 7.8962 15.6665C7.54719 15.7449 7.20419 15.8409 6.88928 16.011C6.80573 16.057 6.72734 16.1113 6.65537 16.173C6.56031 16.253 6.55536 16.3036 6.65702 16.3731C6.80497 16.4731 6.95932 16.5717 7.12442 16.6407C7.65567 16.8632 8.21957 16.9608 8.79152 17.029C9.34732 17.0969 9.90792 17.1206 10.4677 17.1001C11.3004 17.0662 12.1278 16.9874 12.918 16.7086C13.1161 16.6387 13.299 16.5285 13.4881 16.4353C13.5089 16.4235 13.528 16.4092 13.5451 16.3927C13.6627 16.2914 13.6709 16.2452 13.5451 16.1588C13.4004 16.0588 13.2494 15.9552 13.0845 15.9009C12.7277 15.7835 12.3601 15.6965 11.997 15.5971C11.9819 15.5923 11.9668 15.5871 11.9373 15.5785Z" fill="#1D82BF"/>
</svg>
